<?xml version="1.0" standalone="no"?>
<!DOCTYPE svg PUBLIC "-//W3C//DTD SVG 20010904//EN"
 "http://www.w3.org/TR/2001/REC-SVG-20010904/DTD/svg10.dtd">
<svg version="1.0" xmlns="http://www.w3.org/2000/svg"
 width="300.000000pt" height="300.000000pt" viewBox="0 0 300.000000 300.000000"
 preserveAspectRatio="xMidYMid meet">
<metadata>
Created by potrace 1.10, written by Peter Selinger 2001-2011
</metadata>
<g transform="translate(0.000000,300.000000) scale(0.100000,-0.100000)"
fill="#000000" stroke="none">
<path d="M1431 2920 c-1 -31 -3 -33 -15 -17 -18 23 -34 22 -38 -5 -4 -30 -21
-33 -33 -6 -12 28 -28 27 -37 -4 -5 -17 -7 -13 -5 15 2 20 -1 37 -5 37 -8 0
-12 -23 -9 -49 2 -7 -2 -10 -8 -7 -6 4 -19 2 -30 -3 -14 -8 -22 -7 -32 6 -12
14 -12 16 0 9 9 -6 12 -5 10 3 -7 20 -24 14 -27 -9 -2 -14 -10 -20 -20 -18
-10 2 -16 11 -14 21 4 25 -17 21 -29 -5 -8 -19 -8 -17 -4 13 4 28 2 36 -10 36
-9 0 -14 -6 -11 -14 6 -14 -34 -57 -43 -47 -3 3 1 9 9 14 8 5 11 12 7 17 -5 4
-17 -3 -27 -17 l-20 -25 -1 40 c-2 31 -3 34 -6 12 -4 -23 -7 -26 -19 -16 -8 6
-18 9 -21 5 -4 -4 -2 -11 6 -15 10 -7 9 -10 -3 -14 -11 -4 -16 -1 -16 11 0 14
-2 14 -9 3 -7 -11 -10 -7 -14 15 l-4 29 -2 -29 c-1 -29 -2 -29 -17 -10 -11 14
-17 16 -21 6 -4 -9 -8 -10 -18 -2 -9 8 -15 8 -20 0 -3 -6 -12 -7 -18 -3 -19
12 -57 12 -57 0 0 -8 -4 -7 -12 1 -10 10 -16 8 -30 -10 -17 -23 -18 -23 -18
-2 0 12 -7 21 -15 21 -8 0 -15 -3 -15 -6 0 -3 -22 -4 -50 -3 -37 3 -50 0 -50
-10 -1 -8 -4 -7 -11 5 -6 9 -15 14 -21 10 -17 -10 -122 -3 -129 9 -3 5 -10 -1
-14 -14 l-7 -23 -7 25 c-6 20 -9 22 -17 10 -9 -15 -94 -24 -94 -10 0 8 -37 5
-63 -5 -12 -5 -17 -2 -17 10 0 27 -20 6 -21 -23 l-1 -27 -8 30 c-4 17 -8 24
-9 18 0 -7 -7 -13 -15 -13 -8 0 -17 6 -20 13 -4 6 -5 3 -3 -8 2 -11 -5 -29
-15 -39 -14 -15 -18 -16 -18 -5 0 8 5 20 11 26 9 9 8 11 -2 10 -24 -4 -39 -18
-38 -35 0 -14 2 -13 9 3 8 19 9 19 9 -2 1 -25 20 -30 40 -10 11 10 13 10 7 0
-4 -8 -2 -13 5 -13 8 0 7 -6 -4 -17 -8 -10 -15 -29 -15 -43 0 -153 -6 -351
-12 -335 -6 16 -8 12 -12 -18 -2 -22 1 -50 8 -63 7 -13 14 -49 15 -81 2 -48 0
-59 -14 -61 -9 -2 -17 -12 -17 -23 0 -20 -15 -26 -24 -10 -7 10 -54 12 -61 1
-2 -3 1 -7 8 -7 27 -2 108 -21 114 -27 4 -3 2 -11 -4 -17 -8 -8 -8 -18 -1 -35
14 -30 3 -42 -22 -26 -11 7 -20 8 -20 3 0 -6 5 -13 11 -16 5 -4 9 -14 7 -23
-2 -10 3 -22 11 -28 16 -12 24 -84 9 -84 -11 0 -10 -67 1 -75 6 -3 8 -58 7
-125 -2 -66 0 -123 5 -126 4 -2 4 -15 -1 -28 -5 -13 -6 -26 -4 -29 3 -3 5
-103 3 -224 -1 -120 -2 -278 -2 -350 0 -73 -1 -133 -2 -133 -2 0 -35 13 -74
29 -46 19 -71 25 -71 17 0 -7 26 -23 58 -36 31 -12 65 -30 75 -38 22 -19 22
-50 0 -74 -13 -15 -14 -18 -2 -18 13 0 15 -22 13 -128 -3 -164 -2 -154 -16
-146 -9 6 -9 3 1 -9 14 -18 15 -46 9 -250 -3 -97 -8 -131 -19 -138 -11 -7 -11
-9 4 -9 9 0 16 -5 15 -11 -2 -6 2 -13 8 -16 8 -2 13 23 17 74 12 143 18 1453
10 1903 -4 245 -6 533 -3 640 5 193 5 195 27 198 16 2 23 10 23 24 l0 21 702
-7 c387 -4 852 -11 1033 -16 182 -5 443 -9 581 -10 l251 0 6 -187 c4 -104 7
-740 7 -1415 0 -1032 2 -1228 14 -1228 10 0 13 17 14 65 0 35 3 69 7 75 3 5 0
10 -7 10 -9 0 -9 3 2 10 10 6 11 10 2 10 -16 0 -11 21 8 37 13 11 12 12 -4 7
-16 -6 -17 -4 -8 13 6 11 10 22 8 24 -2 2 -6 23 -10 46 -4 31 -2 46 10 57 14
15 14 16 0 16 -18 0 -22 25 -6 35 10 6 9 24 -4 82 -7 30 9 46 93 89 66 35 91
57 79 69 -2 3 -38 -13 -79 -35 -90 -48 -104 -50 -94 -13 3 15 6 97 5 183 -3
188 -3 158 -2 370 0 161 0 209 2 243 0 6 -1 237 -3 512 -2 308 0 505 6 513 5
6 6 12 1 12 -5 0 -10 78 -10 174 -1 96 -4 178 -8 184 -3 6 -1 12 5 14 7 2 2
15 -13 31 -19 20 -35 27 -61 27 -30 0 -35 3 -31 18 5 15 4 15 -8 1 -12 -15
-78 -32 -78 -20 0 3 -44 5 -97 4 -63 -1 -100 3 -105 10 -5 8 -10 8 -20 0 -11
-10 -73 -19 -88 -13 -24 9 -64 9 -80 0 -15 -8 -20 -8 -20 1 0 6 -7 8 -16 5 -9
-4 -23 -1 -30 5 -11 9 -18 8 -30 -2 -9 -8 -18 -9 -22 -3 -4 5 -18 8 -32 7 -51
-6 -210 -8 -210 -3 0 3 -16 6 -36 7 -20 1 -45 9 -55 19 -11 10 -19 12 -19 6 0
-7 5 -12 10 -12 6 0 10 -3 10 -8 0 -4 -39 -7 -87 -6 -49 1 -88 3 -88 4 0 2
-12 3 -27 4 -16 1 -28 -2 -28 -6 0 -14 -27 -8 -41 9 -11 14 -11 15 -1 9 10 -6
13 -3 10 10 -5 28 -23 13 -22 -18 1 -19 -2 -25 -12 -21 -9 3 -12 13 -7 31 4
17 2 23 -6 18 -6 -4 -12 -19 -12 -34 -1 -24 -3 -23 -9 8 -6 30 -8 31 -10 10
-2 -19 -5 -15 -10 15 l-7 40 -2 -35z"/>
<path d="M10 2885 c0 -9 9 -15 25 -15 18 0 25 -5 25 -20 0 -11 5 -20 10 -20
12 0 14 47 3 53 -5 2 -20 7 -35 11 -21 5 -28 3 -28 -9z"/>
<path d="M2976 2780 c-27 -69 -35 -166 -50 -643 -16 -500 -13 -540 40 -586 33
-28 48 -10 16 19 -48 45 -52 83 -39 480 16 491 25 643 42 698 21 68 14 90 -9
32z"/>
<path d="M0 2721 c0 -5 6 -12 13 -14 9 -4 9 -6 0 -6 -7 -1 -10 -8 -7 -16 9
-23 24 -18 20 8 -3 12 -5 25 -5 30 -1 10 -21 9 -21 -2z"/>
<path d="M99 2723 c0 -5 -2 -16 -4 -26 -2 -10 3 -21 11 -24 24 -9 29 6 8 22
-17 13 -17 14 -1 15 21 0 23 20 2 20 -8 0 -15 -3 -16 -7z"/>
<path d="M900 2630 l-555 -5 -3 -163 c-2 -153 -1 -163 15 -158 10 3 25 1 33
-4 11 -7 7 -10 -19 -10 l-34 0 7 -167 c3 -93 8 -474 11 -848 3 -374 8 -744 11
-823 l6 -142 527 0 c289 0 797 -3 1129 -6 l602 -7 0 999 c0 549 -3 1077 -7
1172 l-6 172 -581 -2 c-320 -2 -831 -5 -1136 -8z m1000 -15 c45 -4 60 -2 50 5
-12 8 -11 10 8 10 19 0 22 -4 17 -20 -4 -12 -2 -20 4 -20 6 0 19 9 28 20 24
28 33 25 33 -10 0 -19 -5 -30 -14 -30 -18 0 -26 -65 -14 -102 13 -36 -5 -89
-34 -107 -13 -8 -38 -15 -56 -17 -37 -3 -102 -47 -109 -74 -15 -56 -86 -190
-119 -222 -21 -21 -33 -38 -26 -38 7 0 12 4 12 9 0 5 14 11 30 15 24 4 30 11
30 31 0 14 3 25 8 25 12 0 81 -26 88 -33 4 -4 15 -7 24 -7 18 0 47 -27 38 -35
-2 -3 -25 2 -51 11 -25 8 -58 14 -72 12 -24 -3 -25 -4 -11 -23 13 -16 17 -17
25 -6 6 9 18 11 37 7 40 -10 54 -24 54 -55 l0 -26 15 29 c8 15 15 35 15 43 0
34 40 71 83 78 23 4 47 11 53 16 7 6 16 4 24 -6 7 -8 19 -15 27 -15 15 0 62
-49 63 -66 0 -5 14 -23 30 -39 50 -48 30 -62 -34 -24 -19 11 -40 18 -45 15 -5
-3 -11 1 -15 9 -8 22 -29 18 -23 -5 3 -10 0 -21 -7 -23 -16 -6 -6 -14 28 -23
21 -5 27 -4 22 5 -10 16 20 14 36 -2 7 -8 20 -12 30 -9 14 3 18 -2 18 -23 0
-15 -6 -39 -14 -53 -24 -46 -57 -206 -39 -188 10 10 45 -55 39 -71 -4 -9 6
-27 21 -43 68 -68 67 -74 -13 -128 -82 -55 -83 -56 -94 -30 l-9 23 0 -22 c-1
-13 -5 -23 -11 -23 -5 0 -10 -4 -10 -10 0 -39 158 32 191 86 l21 35 -40 77
c-22 42 -48 91 -58 109 -17 28 -17 36 -5 85 13 49 45 119 74 161 8 12 9 20 2
25 -6 4 -24 30 -39 57 -37 66 -83 113 -125 131 -45 19 -129 3 -170 -32 -16
-13 -33 -24 -39 -24 -16 0 -94 44 -99 56 -2 5 12 44 31 85 35 79 79 119 128
119 12 0 39 19 61 42 38 40 39 43 33 95 -6 54 8 110 36 136 17 16 492 17 508
1 12 -12 12 -20 6 -109 -2 -33 -4 -67 -4 -75 10 -179 -8 -354 -39 -391 -17
-20 -16 -29 2 -49 20 -22 10 -48 -21 -56 -38 -10 -28 -26 14 -22 30 2 37 7 35
23 -3 23 15 143 25 165 12 26 18 -203 7 -245 -10 -37 -14 -40 -48 -43 -25 -2
-37 -8 -37 -19 0 -9 6 -13 14 -10 25 10 26 -20 1 -49 -46 -54 -41 -108 11
-112 16 -1 31 -5 35 -10 4 -4 8 -178 8 -387 1 -438 0 -401 7 -485 4 -60 3 -63
-11 -46 -8 11 -15 26 -15 33 0 7 -4 13 -9 13 -13 0 7 -59 27 -83 21 -23 24
-77 6 -84 -8 -3 -12 -9 -9 -13 3 -4 7 -44 9 -89 6 -119 15 -114 -206 -109
-178 3 -185 2 -180 -16 3 -13 1 -17 -6 -12 -7 4 -12 13 -12 19 0 9 -28 11
-102 9 -57 -1 -110 -2 -118 -2 -8 0 -32 1 -52 1 -39 -1 -41 2 -40 49 1 19 -2
17 -11 -12 -16 -48 -26 -57 -42 -35 -7 11 -16 14 -19 8 -8 -12 -633 -14 -641
-1 -3 5 6 21 21 37 42 44 46 68 46 233 0 118 -6 197 -26 329 -15 96 -25 180
-22 187 3 7 1 16 -4 19 -6 4 -10 15 -10 26 0 17 4 20 29 14 17 -3 32 -2 36 4
4 7 -7 11 -30 11 -35 0 -60 24 -38 39 16 11 24 41 9 35 -10 -4 -15 6 -18 30
-3 28 1 39 16 50 12 8 18 17 14 21 -4 4 -15 2 -24 -6 -15 -13 -16 -11 -11 16
3 17 12 49 21 73 15 38 15 45 1 58 -13 14 -15 13 -13 -8 1 -13 -4 -40 -11 -61
-21 -63 -15 -168 26 -422 34 -216 38 -257 36 -404 -2 -180 -2 -179 -81 -269
-27 -30 -32 -32 -99 -32 -56 0 -76 4 -97 21 -14 11 -26 27 -26 35 0 8 -12 19
-26 24 -24 9 -26 15 -22 55 2 25 -1 44 -6 42 -4 -1 -10 -21 -12 -44 -3 -37 0
-44 26 -63 17 -12 30 -30 30 -40 0 -17 -11 -18 -165 -18 -90 0 -169 -3 -175
-7 -5 -3 -13 1 -16 9 -3 9 -11 16 -17 16 -6 0 -18 7 -28 16 -12 10 -25 14 -36
9 -15 -6 -15 -8 -3 -12 46 -14 45 -14 31 -23 -8 -4 -24 -6 -35 -3 -12 3 -29 6
-38 6 -16 1 -18 14 -19 109 -1 59 -2 127 -3 151 -1 23 1 54 5 69 4 15 3 28 -1
30 -8 3 -11 56 -8 148 0 19 -1 70 -3 112 -2 43 0 80 3 84 4 3 3 16 -2 28 -4
12 -4 29 1 38 6 11 5 19 -1 23 -5 3 -10 13 -10 21 0 8 4 12 10 9 6 -4 7 2 1
18 -6 16 -6 28 2 36 6 6 7 11 1 11 -6 0 -10 44 -11 108 -1 59 -2 116 -3 127 0
26 -1 76 -1 95 1 108 0 217 -2 265 -2 33 0 68 5 77 4 9 4 19 -1 22 -13 8 -12
146 1 146 7 0 6 5 -2 15 -10 12 -10 18 0 30 7 8 9 15 6 15 -4 0 0 7 8 16 9 8
16 23 17 32 4 70 3 109 -5 120 -4 6 -6 12 -3 12 3 0 1 14 -5 31 -9 26 -12 29
-20 15 -5 -9 -13 -16 -19 -16 -5 0 -3 10 5 23 10 16 13 47 10 118 l-3 97 37 9
c56 14 70 7 75 -35 l4 -37 1 41 c2 32 6 43 22 47 11 3 22 2 25 -2 2 -5 25 -5
50 -1 25 4 48 3 51 -1 9 -16 0 -811 -10 -827 -3 -5 -6 -46 -6 -93 -1 -46 -6
-120 -11 -164 -5 -44 -10 -106 -12 -138 -2 -32 -9 -63 -15 -69 -7 -7 -12 -16
-12 -22 0 -5 7 -1 15 10 13 17 14 13 16 -46 2 -83 -1 -104 -13 -111 -7 -4 -6
-14 2 -29 9 -16 10 -49 6 -109 -9 -120 -17 -446 -11 -440 8 9 16 136 15 233
-1 65 2 86 10 81 9 -5 10 -1 5 16 -9 26 -8 123 1 153 5 15 8 16 15 5 7 -12 9
-11 9 1 2 22 68 -118 81 -172 7 -26 16 -45 19 -43 4 2 19 -21 34 -53 15 -31
33 -66 38 -77 11 -20 24 -66 34 -120 11 -59 25 -63 20 -5 -5 55 -41 159 -61
172 -5 4 -7 8 -2 8 8 0 -49 117 -87 179 -21 35 -60 147 -71 206 -17 96 -24
179 -21 250 8 148 17 260 23 275 2 8 8 38 13 66 5 28 23 74 40 103 17 28 29
57 27 63 -4 9 -6 8 -7 -2 0 -8 -18 -33 -40 -54 l-39 -39 4 29 c2 16 4 31 5 34
1 3 1 96 1 208 -1 161 1 202 11 196 10 -6 10 -4 3 7 -7 8 -11 73 -10 159 l0
145 32 1 c18 0 36 3 39 7 4 4 23 7 42 7 l35 0 -6 -252 c-4 -139 -7 -279 -7
-310 0 -44 -5 -63 -20 -78 -10 -10 -15 -22 -10 -25 5 -3 11 -1 14 4 4 5 30 17
59 25 28 9 61 23 72 32 19 16 19 16 -10 10 -92 -21 -85 -24 -85 36 0 61 14 85
37 63 18 -18 43 -8 43 16 0 24 -29 37 -41 18 -22 -34 -29 23 -28 224 0 176 2
209 15 214 14 5 106 8 179 5 17 -1 70 0 118 2 92 4 115 -4 118 -42 3 -32 6
-61 13 -102 7 -47 -28 -176 -54 -197 -8 -7 -11 -13 -7 -13 16 0 -65 -78 -101
-96 -20 -10 -49 -30 -65 -43 -23 -21 -26 -30 -21 -60 4 -26 3 -32 -5 -21 -5 8
-13 12 -16 8 -10 -9 13 -46 35 -58 25 -13 148 -179 185 -250 16 -30 35 -62 42
-70 24 -30 45 -140 38 -197 -4 -35 -3 -53 4 -53 6 0 11 10 11 21 0 12 5 39 11
59 10 32 9 42 -5 61 -9 13 -16 35 -16 49 -1 59 -74 191 -177 319 -24 29 -43
59 -43 66 0 7 -4 15 -8 17 -9 3 -52 72 -52 82 0 3 6 6 14 6 25 0 163 99 195
139 17 21 38 65 46 97 15 56 22 202 11 234 -2 8 -7 28 -10 43 -7 28 -6 28 37
26 l45 -3 5 -52 c3 -28 1 -96 -5 -150 -5 -55 -11 -115 -13 -135 -2 -20 -6 -47
-10 -60 -5 -17 -4 -21 4 -14 17 17 41 198 41 313 l0 102 40 0 c37 0 41 -3 47
-30 8 -43 23 -48 16 -6 l-5 35 103 4 c105 3 200 1 319 -8z m-1503 -390 c20
-20 15 -23 -22 -14 -16 4 -24 7 -17 8 7 0 10 6 7 11 -10 16 15 12 32 -5z
m2210 -520 c-2 -36 -13 -41 -31 -13 -7 12 -6 21 3 32 21 25 30 19 28 -19z
m-37 -44 c0 -29 -21 -57 -33 -44 -9 8 -9 58 0 66 16 17 33 5 33 -22z"/>
<path d="M946 2514 c-8 -21 1 -34 24 -34 25 0 35 17 20 35 -16 20 -36 19 -44
-1z"/>
<path d="M2357 2486 c-4 -10 1 -20 13 -26 26 -14 34 3 11 24 -16 15 -19 15
-24 2z"/>
<path d="M1510 2234 c-6 -14 -10 -46 -10 -72 0 -70 24 -37 26 38 3 65 -1 74
-16 34z"/>
<path d="M1611 2225 c-6 -16 -17 -42 -25 -57 -8 -16 -11 -28 -6 -28 12 0 52
90 46 104 -2 6 -9 -2 -15 -19z"/>
<path d="M2407 2222 c-20 -22 -21 -33 -6 -66 16 -35 38 -40 65 -15 19 18 21
26 13 47 -9 23 -36 51 -50 52 -3 0 -13 -8 -22 -18z m48 -32 c10 -45 -17 -73
-28 -29 -3 12 -10 18 -16 14 -7 -3 -11 2 -11 14 0 17 11 24 42 30 3 0 9 -12
13 -29z"/>
<path d="M1637 2174 c-16 -31 -26 -59 -23 -61 3 -3 18 22 34 56 16 34 26 61
23 61 -4 0 -19 -25 -34 -56z"/>
<path d="M1490 2015 c0 -30 5 -55 10 -55 6 0 10 25 10 55 0 30 -4 55 -10 55
-5 0 -10 -25 -10 -55z"/>
<path d="M1580 2044 c-6 -16 -18 -42 -26 -58 -13 -26 -13 -32 1 -45 13 -14 15
-12 15 18 0 18 7 48 16 67 9 19 14 37 11 41 -4 3 -11 -7 -17 -23z"/>
<path d="M1619 2033 c-5 -14 -8 -32 -5 -39 2 -6 -2 -21 -10 -33 -13 -19 -13
-21 0 -21 17 0 28 29 31 83 3 44 -2 47 -16 10z"/>
<path d="M1998 2038 c-27 -9 -27 -10 -11 -34 9 -14 22 -23 29 -20 8 3 14 1 14
-3 0 -5 -5 -11 -12 -13 -7 -3 -9 -12 -4 -24 7 -19 8 -19 22 0 21 29 17 53 -8
60 -22 6 -22 7 -5 20 24 18 9 26 -25 14z"/>
<path d="M1908 1923 c-23 -6 -24 -35 -2 -31 22 4 51 -72 32 -84 -10 -6 -10 -8
0 -8 9 0 11 -7 7 -20 -3 -11 -2 -20 3 -20 10 0 22 47 22 87 0 26 -26 84 -38
82 -4 -1 -15 -3 -24 -6z"/>
<path d="M1870 1829 c0 -26 -65 -90 -115 -114 -30 -15 -59 -33 -66 -41 -10
-12 -14 -12 -26 3 -13 17 -14 17 -29 -4 -22 -31 -35 -29 -59 7 -19 29 -35 39
-35 21 0 -17 47 -76 59 -73 6 1 21 -3 32 -9 15 -7 24 -7 33 1 19 15 24 -4 32
-114 7 -103 0 -166 -20 -166 -7 0 -26 7 -43 15 -34 17 -153 19 -226 3 -28 -6
-60 -22 -78 -39 l-32 -30 7 -87 c5 -68 2 -109 -13 -182 -10 -52 -22 -131 -25
-175 -4 -44 -9 -102 -12 -130 -4 -34 -2 -46 5 -36 8 13 13 45 27 176 9 94 17
142 27 165 5 14 11 79 12 144 2 113 3 121 25 135 62 41 194 53 286 26 80 -24
158 -112 174 -196 6 -33 3 -41 -37 -84 -47 -53 -54 -82 -23 -110 18 -17 20
-17 14 -2 -3 9 -10 17 -15 17 -5 0 -9 7 -9 16 0 18 79 96 90 89 13 -8 54 101
54 145 1 42 -1 45 -26 48 -33 4 -38 -13 -7 -21 20 -5 21 -10 14 -54 -8 -53
-12 -63 -26 -63 -5 0 -9 13 -9 29 0 16 -6 42 -13 59 -13 31 -77 107 -96 113
-7 3 -6 29 1 77 10 60 9 85 -4 145 -24 106 -20 129 21 139 61 16 189 168 141
168 -5 0 -10 -5 -10 -11z"/>
<path d="M1055 1811 c9 -30 46 -93 52 -87 2 2 -10 28 -27 58 -17 29 -28 42
-25 29z"/>
<path d="M1980 1727 c0 -23 4 -36 10 -32 13 8 13 35 0 55 -7 11 -10 5 -10 -23z"/>
<path d="M1365 1720 c3 -5 12 -10 19 -10 7 0 23 -11 36 -24 24 -26 22 -56 -5
-56 -8 0 -15 -5 -15 -11 0 -6 12 -3 28 6 37 22 38 71 2 90 -29 17 -74 20 -65
5z"/>
<path d="M1197 1655 c4 -22 7 -54 7 -72 1 -17 4 -29 9 -26 11 7 8 44 -8 93
l-15 45 7 -40z"/>
<path d="M1938 1624 c-2 -5 -1 -25 3 -44 3 -19 7 -27 8 -17 0 10 6 15 11 12
15 -10 12 -35 -5 -35 -8 0 -15 -7 -15 -16 0 -14 3 -14 15 -4 13 11 15 8 15
-14 0 -14 4 -26 9 -26 13 0 1 80 -19 119 -9 19 -19 30 -22 25z"/>
<path d="M2013 1618 c0 -7 -4 -21 -8 -31 -6 -13 -3 -16 9 -11 14 5 16 -5 16
-84 0 -73 -3 -91 -16 -96 -20 -8 -34 1 -34 20 0 8 -4 14 -10 14 -5 0 -10 -7
-10 -15 0 -7 -8 -19 -17 -24 -10 -6 -13 -11 -8 -12 15 -3 38 -6 57 -8 9 0 20
-10 23 -22 4 -11 9 -18 12 -16 8 9 25 141 24 187 -1 50 -37 141 -38 98z"/>
<path d="M1809 1595 c-2 -37 -3 -43 -11 -51 -14 -14 -9 -111 6 -123 22 -18 16
-51 -9 -51 -11 0 -27 -5 -35 -10 -12 -7 -8 -10 15 -10 17 0 53 -9 82 -20 40
-15 51 -16 47 -6 -3 8 -21 17 -40 20 -34 7 -38 14 -35 62 1 12 -5 24 -15 28
-14 5 -16 15 -11 56 3 28 13 60 22 72 19 28 19 58 0 58 -9 0 -15 -10 -16 -25z"/>
<path d="M1862 1459 c0 -45 3 -57 8 -43 9 23 7 91 -3 100 -3 4 -6 -22 -5 -57z"/>
<path d="M2033 1317 c-13 -5 -25 -18 -28 -28 -4 -11 -11 -19 -16 -19 -5 0 -9
-8 -10 -17 0 -12 -6 -6 -16 15 -9 17 -22 32 -29 32 -9 0 -7 -10 7 -35 26 -43
22 -87 -8 -100 -13 -5 -23 -16 -23 -24 0 -11 3 -11 16 0 15 12 16 11 11 -6 -3
-11 -12 -42 -18 -70 -7 -27 -18 -54 -26 -58 -7 -4 -13 -16 -13 -25 0 -23 67
55 73 85 2 12 0 20 -4 17 -10 -6 -12 39 -2 49 3 4 12 2 20 -4 10 -9 13 -7 13
6 0 10 5 35 11 56 l12 38 29 -24 c33 -28 50 -32 42 -10 -4 8 -9 15 -13 15 -3
0 -19 10 -35 23 l-28 23 31 33 c35 38 36 43 4 28z"/>
<path d="M568 1248 c-3 -18 -2 -44 3 -58 5 -19 7 -11 8 33 1 63 -4 75 -11 25z"/>
<path d="M755 960 c40 -42 65 -56 65 -35 0 8 -7 15 -15 15 -8 0 -15 4 -15 10
0 5 -15 17 -32 26 l-33 16 30 -32z"/>
<path d="M2500 715 c0 -8 -9 -19 -19 -25 -17 -9 -19 -14 -9 -43 12 -35 27 -57
29 -41 4 35 6 124 3 124 -2 0 -4 -7 -4 -15z"/>
<path d="M2331 666 c-9 -22 -9 -37 0 -60 6 -17 13 -47 16 -66 7 -47 12 -50 19
-12 4 18 10 32 14 32 7 0 -11 68 -30 115 -7 18 -9 18 -19 -9z"/>
<path d="M2260 604 c0 -36 18 -94 30 -94 10 0 1 38 -10 45 -5 3 -6 14 -3 24 3
11 0 28 -6 38 -9 16 -10 14 -11 -13z"/>
<path d="M1952 551 c-9 -37 -8 -39 9 -28 12 8 18 22 17 39 -3 40 -14 35 -26
-11z"/>
<path d="M2040 551 c0 -16 -3 -43 -7 -61 -4 -24 -3 -31 5 -26 7 4 13 1 13 -6
1 -7 5 10 9 37 3 28 5 58 2 68 -7 27 -22 20 -22 -12z"/>
<path d="M1047 415 c27 -33 43 -44 43 -27 0 8 -55 62 -65 62 -3 0 7 -16 22
-35z"/>
<path d="M23 2072 c-24 -4 -31 -28 -11 -34 14 -5 42 18 36 30 -2 4 -13 6 -25
4z"/>
<path d="M75 2050 c-7 -21 0 -40 16 -40 12 0 12 47 0 55 -5 3 -12 -4 -16 -15z"/>
<path d="M74 1909 c-10 -16 5 -45 25 -46 26 -2 26 43 0 50 -11 3 -22 1 -25 -4z"/>
<path d="M9 1748 c-1 -2 -2 -20 -3 -40 -4 -51 11 -49 16 2 2 22 0 40 -4 40 -5
0 -8 -1 -9 -2z"/>
<path d="M62 1700 c-10 -17 -10 -26 3 -50 9 -17 22 -30 30 -30 20 0 19 7 -6
38 -12 16 -16 28 -10 30 12 4 15 32 3 32 -4 0 -13 -9 -20 -20z"/>
<path d="M2972 1500 c-51 -21 -92 -209 -60 -270 18 -33 88 -43 88 -12 0 15 -6
18 -29 14 -41 -6 -55 24 -48 102 5 69 32 133 59 142 10 3 18 12 18 20 0 8 -1
14 -2 13 -2 0 -13 -4 -26 -9z"/>
<path d="M194 425 c0 -110 2 -156 3 -103 2 53 2 143 0 200 -1 57 -3 13 -3 -97z"/>
<path d="M2890 346 c-20 -20 -9 -27 32 -24 31 2 44 8 46 21 3 14 -3 17 -33 15
-20 -2 -40 -7 -45 -12z"/>
</g>
</svg>
